<svg width="45" height="58" viewBox="0 0 45 58" fill="none" xmlns="http://www.w3.org/2000/svg">
<path d="M22.0202 6.0951C21.7296 6.0951 21.4492 6.05079 21.1852 5.96863V9.94861H22.8552V5.96863C22.5912 6.0509 22.3108 6.0951 22.0202 6.0951Z" fill="#135693"/>
<path d="M22.0201 6.20654C23.6366 6.20654 24.947 4.89616 24.947 3.27972C24.947 1.66329 23.6366 0.352905 22.0201 0.352905C20.4037 0.352905 19.0933 1.66329 19.0933 3.27972C19.0933 4.89616 20.4037 6.20654 22.0201 6.20654Z" fill="#6BC1DD"/>
<g opacity="0.15">
<path opacity="0.15" d="M21.5569 3.27972C21.5569 2.10354 22.251 1.0899 23.252 0.624657C22.8774 0.450651 22.4603 0.352905 22.0201 0.352905C20.4037 0.352905 19.0933 1.66335 19.0933 3.27972C19.0933 4.89609 20.4037 6.20642 22.0201 6.20642C22.4603 6.20642 22.8774 6.10868 23.252 5.93467C22.251 5.46954 21.5569 4.4559 21.5569 3.27972Z" fill="#440075"/>
</g>
<path d="M40.676 14.5166H38.9501V30.4385H40.676C41.6222 30.4385 42.3964 29.6645 42.3964 28.7183V16.2368C42.3964 15.2908 41.6222 14.5166 40.676 14.5166Z" fill="#9EA7AF"/>
<path d="M5.09045 14.5171H3.25064C2.30446 14.5171 1.5304 15.2913 1.5304 16.2373V28.7187C1.5304 29.6648 2.30446 30.4389 3.25064 30.4389H5.09033L5.09045 14.5171Z" fill="#9EA7AF"/>
<path d="M6.26349 51.2694H3.89933C3.0922 51.2694 2.34241 51.0242 1.72031 50.6041V56.2062C1.72031 56.8369 2.23642 57.3531 2.86721 57.3531H6.26349V51.2694Z" fill="#C5CCD3"/>
<path d="M40.1411 51.2692H37.777V57.3529H41.1733C41.8041 57.3529 42.3202 56.8368 42.3202 56.206V50.6041C41.698 51.0239 40.9482 51.2692 40.1411 51.2692Z" fill="#C5CCD3"/>
<path opacity="0.15" d="M4.12878 56.2061V51.2693H3.89933C3.0922 51.2693 2.34241 51.024 1.72031 50.604V56.206C1.72031 56.8368 2.23642 57.3529 2.86721 57.3529H5.27568C4.6449 57.353 4.12878 56.8369 4.12878 56.2061Z" fill="#440075"/>
<path d="M6.26354 42.502H3.89938C1.74585 42.502 0 44.2478 0 46.4013V47.5482C0 49.7018 1.74596 51.4475 3.89938 51.4475H6.26343L6.26354 42.502Z" fill="#E6E9ED"/>
<path d="M40.141 42.5006H37.7769V51.4463H40.141C42.2946 51.4463 44.0403 49.7004 44.0403 47.547V46.4001C44.0403 44.2463 42.2945 42.5006 40.141 42.5006Z" fill="#E6E9ED"/>
<g opacity="0.15">
<path opacity="0.15" d="M2.75259 47.547V46.4001C2.75259 44.2465 4.49843 42.5007 6.65196 42.5007H3.89938C1.74585 42.5007 0 44.2466 0 46.4001V47.547C0 49.7005 1.74596 51.4463 3.89938 51.4463H6.65196C4.49832 51.4463 2.75259 49.7005 2.75259 47.547Z" fill="#440075"/>
</g>
<path d="M25.8275 34.8702H18.2138V37.7153H25.8275V34.8702Z" fill="#9EA7AF"/>
<path opacity="0.15" d="M20.9882 34.8702H18.2138V37.7153H20.9882V34.8702Z" fill="#440075"/>
<path d="M30.9764 40.4309V38.5801C30.9764 38.0362 30.5313 37.5911 29.9873 37.5911H13.7195C13.1754 37.5911 12.7303 38.0362 12.7303 38.5801V40.4309H30.9764Z" fill="#C5CCD3"/>
<path opacity="0.15" d="M16.1605 40.4309V38.5801C16.1605 38.0362 16.6056 37.5911 17.1497 37.5911H13.7195C13.1754 37.5911 12.7303 38.0362 12.7303 38.5801V40.4309H16.1605Z" fill="#440075"/>
<path d="M36.1677 40.2358H7.87254C6.92637 40.2358 6.15219 41.01 6.15219 41.9562V57.3531H37.888V41.9562C37.888 41.01 37.114 40.2358 36.1677 40.2358Z" fill="#9EA7AF"/>
<g opacity="0.15">
<path opacity="0.15" d="M11.1575 40.2358H7.87254C6.92637 40.2358 6.15219 41.01 6.15219 41.9562V57.3531H9.43715V41.9562C9.43715 41.01 10.2113 40.2358 11.1575 40.2358Z" fill="#440075"/>
</g>
<path d="M39.0613 33.2822C39.0613 34.2284 38.2872 35.0024 37.3411 35.0024H6.69937C5.7533 35.0024 4.97913 34.2284 4.97913 33.2822V11.5575C4.97913 10.6113 5.7533 9.83728 6.69937 9.83728H37.3411C38.2872 9.83728 39.0613 10.6113 39.0613 11.5575V33.2822Z" fill="#C5CCD3"/>
<g opacity="0.15">
<path opacity="0.15" d="M8.25763 33.2822V11.5575C8.25763 10.6113 9.0318 9.83728 9.97798 9.83728H6.69937C5.7533 9.83728 4.97913 10.6113 4.97913 11.5575V33.2823C4.97913 34.2285 5.7533 35.0025 6.69937 35.0025H9.97798C9.0318 35.0024 8.25763 34.2284 8.25763 33.2822Z" fill="#440075"/>
</g>
<path d="M34.9903 22.4523C34.9903 25.7341 32.3299 28.3941 29.0482 28.3941H14.9921C11.7102 28.3941 9.04993 25.734 9.04993 22.4523C9.04993 19.1706 11.7102 16.5105 14.9921 16.5105H29.0482C32.3299 16.5105 34.9903 19.1706 34.9903 22.4523Z" fill="#135693"/>
<g opacity="0.15">
<path opacity="0.15" d="M12.3863 22.4523C12.3863 19.1706 15.0466 16.5105 18.3285 16.5105H14.9921C11.7102 16.5105 9.04993 19.1707 9.04993 22.4523C9.04993 25.7341 11.7102 28.3941 14.9921 28.3941H18.3285C15.0466 28.3941 12.3863 25.734 12.3863 22.4523Z" fill="#440075"/>
</g>
<path d="M14.3986 24.7728C15.6747 24.7728 16.7091 23.7343 16.7091 22.4532C16.7091 21.1721 15.6747 20.1335 14.3986 20.1335C13.1226 20.1335 12.0881 21.1721 12.0881 22.4532C12.0881 23.7343 13.1226 24.7728 14.3986 24.7728Z" fill="#6BC1DD"/>
<path d="M29.6861 24.7724C30.9622 24.7724 31.9966 23.7339 31.9966 22.4528C31.9966 21.1717 30.9622 20.1332 29.6861 20.1332C28.4101 20.1332 27.3756 21.1717 27.3756 22.4528C27.3756 23.7339 28.4101 24.7724 29.6861 24.7724Z" fill="#6BC1DD"/>
<path d="M32.2703 57.3529V47.3545C32.2703 46.7238 31.7542 46.2076 31.1234 46.2076H12.9168C12.286 46.2076 11.7699 46.7238 11.7699 47.3545V57.3529H32.2703Z" fill="#135693"/>
<path d="M24.0845 57.3529V54.1282C24.0845 53.9389 23.9296 53.7841 23.7405 53.7841H20.2998C20.1106 53.7841 19.9557 53.9389 19.9557 54.1282V57.3529H24.0845Z" fill="#FFC502"/>
<path d="M17.2034 49.7972H14.5656C14.1043 49.7972 13.7306 49.4235 13.7306 48.9623C13.7306 48.501 14.1043 48.1273 14.5656 48.1273H17.2034C17.6646 48.1273 18.0384 48.501 18.0384 48.9623C18.0384 49.4234 17.6646 49.7972 17.2034 49.7972Z" fill="#C5CCD3"/>
<path d="M16.0563 51.8354H14.5653C14.1041 51.8354 13.7303 51.4617 13.7303 51.0005C13.7303 50.5393 14.1041 50.1655 14.5653 50.1655H16.0563C16.5176 50.1655 16.8913 50.5393 16.8913 51.0005C16.8913 51.4617 16.5174 51.8354 16.0563 51.8354Z" fill="#C5CCD3"/>
<path d="M17.2031 53.8743H14.5653C14.1041 53.8743 13.7303 53.5004 13.7303 53.0393C13.7303 52.5781 14.1041 52.2043 14.5653 52.2043H17.2031C17.6643 52.2043 18.0381 52.5781 18.0381 53.0393C18.0381 53.5005 17.6643 53.8743 17.2031 53.8743Z" fill="#C5CCD3"/>
<path d="M15.7122 55.9124H14.5653C14.1041 55.9124 13.7303 55.5386 13.7303 55.0774C13.7303 54.6163 14.1041 54.2424 14.5653 54.2424H15.7122C16.1734 54.2424 16.5472 54.6163 16.5472 55.0774C16.5472 55.5386 16.1733 55.9124 15.7122 55.9124Z" fill="#C5CCD3"/>
<path d="M29.0962 55.0738H27.0603C26.5772 55.0738 26.1858 54.6822 26.1858 54.1991C26.1858 53.7159 26.5773 53.3245 27.0603 53.3245H29.0962C29.5793 53.3245 29.9709 53.716 29.9709 54.1991C29.9709 54.6823 29.5793 55.0738 29.0962 55.0738Z" fill="#E6E9ED"/>
<path d="M28.0786 52.0426C29.0931 52.0426 29.9155 51.2202 29.9155 50.2057C29.9155 49.1912 29.0931 48.3688 28.0786 48.3688C27.0641 48.3688 26.2417 49.1912 26.2417 50.2057C26.2417 51.2202 27.0641 52.0426 28.0786 52.0426Z" fill="#5DC647"/>
<path d="M24.1354 51.1661C24.1354 51.3601 23.9768 51.5186 23.783 51.5186H20.2574C20.0636 51.5186 19.905 51.3601 19.905 51.1661V49.2442C19.905 49.0502 20.0636 48.8916 20.2574 48.8916H23.783C23.9768 48.8916 24.1354 49.0502 24.1354 49.2442V51.1661Z" fill="#6BC1DD"/>
</svg>
